<svg xmlns="http://www.w3.org/2000/svg" width="152.313" height="18.25" viewBox="0 0 152.313 18.25">
  <defs>
    <style>
      .cls-1 {
        fill: #c6c7cd;
        fill-rule: evenodd;
      }
    </style>
  </defs>
  <path id="Logo_5" class="cls-1" d="M773.921,3990.1c0.28-.01.506-0.04,0.732-0.04,2.4,0,4.806-.01,7.209.01a9.134,9.134,0,0,1,3.232.56,7.192,7.192,0,0,1,4.546,4.94,12.226,12.226,0,0,1-.055,7.25,7.42,7.42,0,0,1-7.369,5.45c-2.66.09-5.327,0.02-7.99,0.01a1.239,1.239,0,0,1-.3-0.07V3990.1Zm4.036,3.32c-0.182,1.3-.128,10.85.064,11.51,1.162,0,2.344.02,3.526,0a4.171,4.171,0,0,0,4.263-3.21,9.2,9.2,0,0,0-.14-5.31,4.013,4.013,0,0,0-3.194-2.82A26.115,26.115,0,0,0,777.957,3993.42Zm-25.009,6.28c2.09,0.81,2.438,2.53,2.613,4.35,0.068,0.7.061,1.42,0.155,2.13,0.089,0.67.265,1.32,0.415,2.05h-3.8a7,7,0,0,1-.509-2.55c-0.082-.65-0.107-1.3-0.2-1.95a2.619,2.619,0,0,0-2.961-2.58c-1.156-.02-2.314,0-3.471,0-0.2,0-.392.03-0.691,0.06v7.03h-3.944v-18.11a6.4,6.4,0,0,1,.638-0.06c3.067-.01,6.133-0.02,9.2,0a6.849,6.849,0,0,1,1.628.21,5.064,5.064,0,0,1,2.988,7.68,7.073,7.073,0,0,1-1.354,1.29A5.037,5.037,0,0,1,752.948,3999.7Zm-8.4-6.59v5.2a53.752,53.752,0,0,0,5.4-.1,1.8,1.8,0,0,0,1.622-1.36,4.893,4.893,0,0,0,.118-1.77,1.876,1.876,0,0,0-1.866-1.81C748.1,3993.14,746.367,3993.16,744.546,3993.11Zm113.1,6.58c1.863,0.72,2.4,2.2,2.558,3.9,0.064,0.68.066,1.37,0.154,2.05,0.11,0.84.279,1.67,0.44,2.61a11.856,11.856,0,0,1-1.8.04c-0.634.01-1.268,0-1.91,0a5.329,5.329,0,0,1-.527-2.26c-0.118-.93-0.163-1.88-0.358-2.79a2.31,2.31,0,0,0-2.406-2.06c-1.47-.07-2.947-0.01-4.542-0.01-0.083,1.17-.028,2.33-0.038,3.48-0.01,1.17,0,2.34,0,3.62-1.34.04-2.621,0.02-3.959,0.01v-18.17c0.278-.02.53-0.05,0.782-0.05,2.982,0,5.964-.01,8.946.01a7.76,7.76,0,0,1,1.8.23,5.057,5.057,0,0,1,2.935,7.64,7.325,7.325,0,0,1-1.348,1.31A5.117,5.117,0,0,1,857.648,3999.69Zm-8.387-1.38c1.142,0,2.181.01,3.219,0a18.84,18.84,0,0,0,1.99-.07,2.05,2.05,0,0,0,1.942-1.96c0.257-2.01-.593-3.02-2.643-3.13h-3.813c-0.223,0-.446.05-0.739,0.08,0,1.43,0,2.82,0,4.22C849.219,3997.7,849.242,3997.95,849.261,3998.31Zm-6,9.95h-3.778a5.813,5.813,0,0,1-.475-2.16c-0.115-.96-0.168-1.93-0.366-2.88a2.314,2.314,0,0,0-2.415-2.04c-1.468-.07-2.942-0.01-4.457-0.01a9.38,9.38,0,0,0-.105,2.29c-0.022.8,0,1.6,0,2.4v2.28a14.521,14.521,0,0,1-3.966.04v-18.03a4.3,4.3,0,0,1,.591-0.08c3.095-.01,6.191-0.04,9.285.01a7.055,7.055,0,0,1,2.356.48,4.8,4.8,0,0,1,3,4.85,4.445,4.445,0,0,1-2.538,4.07,1.905,1.905,0,0,0-.2.16,0.286,0.286,0,0,0,.071.13c1.647,0.66,2.169,2.04,2.362,3.6,0.1,0.82.089,1.66,0.193,2.48C842.918,4006.63,843.1,4007.4,843.263,4008.26Zm-11.555-10.01c0.189,0.02.274,0.05,0.36,0.05,0.952,0,1.9.01,2.858,0.01,0.635-.01,1.274.01,1.9-0.06a2.087,2.087,0,0,0,2.034-2.05c0.2-2-.625-2.94-2.657-3.05h-3.9a3.367,3.367,0,0,0-.6.09v5.01Zm-6.857-.87v3.05h-8.834v4.5h9.841v3.22c-0.646.17-12.388,0.23-13.781,0.08-0.18-.6-0.228-17.04-0.043-18.11h13.6c0.088,1.06.043,2.13,0.029,3.28h-9.644v3.98h8.832Zm-62.63-3.97v3.93c2.926,0.07,5.833-.01,8.808.04v3.04h-8.656a16.467,16.467,0,0,0-.106,4.49c1.067,0.01,2.154.02,3.24,0.02s2.141,0,3.212,0h3.336v3.32H758.333c-0.188-.65-0.225-17.19-0.038-18.14h13.556v3.3h-9.63Zm37.147,8.33v6.5H795.45V3990.1c0.295-.01.549-0.04,0.8-0.04,2.46,0,4.92-.02,7.38.02a9.21,9.21,0,0,1,2.4.32,5.082,5.082,0,0,1,3.911,4.52,7.267,7.267,0,0,1-.051,2.29,5.261,5.261,0,0,1-5.025,4.43c-1.439.12-2.891,0.08-4.337,0.1C800.185,4001.75,799.843,4001.74,799.368,4001.74Zm0.055-3.21a23.2,23.2,0,0,0,4.563.01,2.5,2.5,0,0,0,1.824-1.17,2.671,2.671,0,0,0-2.142-4.11c-1.32-.13-2.656-0.07-3.984-0.08a0.771,0.771,0,0,0-.261.11v5.24Zm-60.573-8.41v3.29h-8.8v4.24h7.573v3.11h-7.629v7.47h-4v-18.11H738.85Zm132.673,18.14h-3.961c-0.016-.32-0.045-0.62-0.046-0.92,0-1.82-.013-3.65.006-5.47a2.325,2.325,0,0,0-.367-1.29q-2.942-4.785-5.86-9.59c-0.158-.26-0.306-0.53-0.54-0.93,1.134,0,2.106-.01,3.077,0,1.736,0.03,1.247-.28,2.139,1.19,1.042,1.71,2.06,3.43,3.09,5.15,0.145,0.24.3,0.47,0.513,0.79,0.186-.26.34-0.45,0.464-0.65,1.158-1.94,2.33-3.88,3.454-5.84a1.118,1.118,0,0,1,1.163-.65c1.173,0.04,2.348.01,3.656,0.01-0.2.37-.316,0.62-0.458,0.85-1.872,3.08-3.729,6.18-5.635,9.23a4.231,4.231,0,0,0-.712,2.49c0.062,1.56.017,3.13,0.017,4.7v0.93Z" transform="translate(-726 -3990.06)"/>
</svg>
