<svg xmlns="http://www.w3.org/2000/svg" width="167.62" height="14.09" viewBox="0 0 167.62 14.09">
  <defs>
    <style>
      .cls-1 {
        fill: #c6c7cd;
        fill-rule: evenodd;
      }
    </style>
  </defs>
  <path id="Logo_4" class="cls-1" d="M1457.46,4005.53c-0.54-.16-1.08-0.3-1.61-0.48a4.081,4.081,0,0,1-3.03-4.02,9.475,9.475,0,0,1,8.49-9.38,15.535,15.535,0,0,1,4.57.16,3.932,3.932,0,0,1,3.37,4.15,9.515,9.515,0,0,1-8.07,9.35,7.938,7.938,0,0,0-.8.22h-2.92Zm2.38-2.72a3.716,3.716,0,0,0,2.84-1.06,7.242,7.242,0,0,0,2.19-5.73,1.907,1.907,0,0,0-2.04-1.91,4.309,4.309,0,0,0-3.97,1.64,7.977,7.977,0,0,0-1.71,4.46C1457.02,4001.96,1457.9,4002.8,1459.84,4002.81Zm45.69,2.72c-0.68-.18-1.38-0.31-2.05-0.55a2.729,2.729,0,0,1-1.91-3.46,0.887,0.887,0,0,1,.63-0.53c1-.06,2-0.02,3-0.02h0.57c-0.04.83-.08,1.67,0.96,1.94a3.445,3.445,0,0,0,3.31-.56c1-.86.75-1.84-0.52-2.19-1.29-.35-2.6-0.62-3.89-0.99-2.11-.6-2.78-1.97-1.97-3.92a5.67,5.67,0,0,1,3.62-3.15,11.761,11.761,0,0,1,6.75-.28c1.8,0.45,2.53,1.61,2.13,3.33a0.869,0.869,0,0,1-.63.53c-0.99.06-2,.03-3,0.03-0.17,0-.34-0.02-0.49-0.03a0.436,0.436,0,0,1-.11-0.15c-0.04-1.29-.28-1.59-1.33-1.65-1.44-.07-2.59.6-2.74,1.6a1.067,1.067,0,0,0,1.04,1.18c1.12,0.31,2.26.59,3.4,0.84,3.37,0.76,3.41,2.87,1.95,5.11-1.11,1.69-2.94,2.34-4.91,2.7-0.3.06-.59,0.15-0.89,0.22h-2.92Zm-121.2,0a9.013,9.013,0,0,0-.9-0.2c-2.97-.45-4.28-1.99-4.11-4.84a9.612,9.612,0,0,1,6.95-8.56,12.188,12.188,0,0,1,5.94-.08,3.115,3.115,0,0,1,2.66,4.08h-4.14c-0.41-1.61-1.25-2.08-3-1.7a3.483,3.483,0,0,0-2.43,1.67,20.7,20.7,0,0,0-1.6,3.92,2.244,2.244,0,0,0,1.13,2.89,3.382,3.382,0,0,0,3.84-1,1.585,1.585,0,0,1,1.66-.77c1,0.04,2,.01,3.1.01a4.628,4.628,0,0,1-1.55,2.52,8.333,8.333,0,0,1-4.66,1.87c-0.33.05-.66,0.13-1,0.19h-1.89Zm57.51,0c-0.51-.16-1.03-0.3-1.52-0.49a2.407,2.407,0,0,1-1.72-2.55v-0.24c0.17-2.4.36-2.57,2.82-2.57h1.89a18.337,18.337,0,0,0-.48,1.99c-0.13.95,0.3,1.28,1.32,1.14a2.385,2.385,0,0,0,1.95-2.03c0.6-1.99,1.18-3.98,1.77-5.97,0.14-.47.28-0.95,0.42-1.42,0.49-1.58.49-1.57,2.26-1.57h2.41c-0.38,1.29-.72,2.49-1.08,3.69-0.52,1.75-1.06,3.5-1.57,5.26a6.18,6.18,0,0,1-5.26,4.56,4.612,4.612,0,0,0-.63.2h-2.58Zm-93.21-3.6a12.945,12.945,0,0,1,.52-1.71,0.955,0.955,0,0,1,.68-0.51c0.99-.06,1.99-0.03,2.99-0.03,0.17,0,.34.02,0.57,0.04a15.645,15.645,0,0,0-.48,1.81c-0.16,1.11.34,1.51,1.5,1.25a2.364,2.364,0,0,0,1.74-1.94c0.6-1.98,1.18-3.97,1.77-5.96,0.25-.84.46-1.69,0.76-2.51a0.97,0.97,0,0,1,.66-0.53c1.2-.05,2.4-0.02,3.69-0.02-0.37,1.29-.72,2.51-1.08,3.73-0.5,1.7-1.02,3.4-1.51,5.1a6.242,6.242,0,0,1-5.34,4.68,4.746,4.746,0,0,0-.64.2h-2.57c-1.33-.38-2.63-0.78-3.26-2.13v-1.47Zm75.26,3.53c-2.91-.09-5.82-0.17-8.74-0.29-1.33-.05-1.47-0.18-1.12-1.43,0.98-3.46,2.03-6.91,3.05-10.36a2.056,2.056,0,0,1,2.17-1.64,155.2,155.2,0,0,1,17.39.04c1.37,0.09,1.48.22,1.15,1.5-0.66,2.56-1.39,5.11-2.13,7.65-0.29.97-.74,1.89-1.02,2.86a1.849,1.849,0,0,1-2,1.4c-2.35.04-4.69,0.13-7.03,0.2-0.57.01-1.14,0-1.72,0v0.07Zm10.95-9.07a0.8,0.8,0,0,0-.2-0.08c-4.84-.01-9.67-0.04-14.5.03a2.794,2.794,0,0,0-1.9.89,17.277,17.277,0,0,0-1.52,2.95c1.63,0,3.06-.04,4.48.02a1.12,1.12,0,0,0,1.37-.87,2.046,2.046,0,0,1,2.32-1.5c2.71,0.02,5.43,0,8.14,0C1434.43,3997.83,1434.43,3997.83,1434.84,3996.39Zm-0.83,1.85c-1.44,0-2.85-.02-4.26.01a0.693,0.693,0,0,0-.44.43,1.058,1.058,0,0,1-1.2.69c-1.51-.02-3.02.01-4.53-0.01a0.673,0.673,0,0,0-.83.82h8.98C1433.45,4000.18,1433.65,4000.02,1434.01,3998.24Zm45.06-6.42c0.72,3.29,1.41,6.49,2.1,9.68,0.07,0.01.13,0.01,0.2,0.02q1.425-4.845,2.86-9.67h3.62c-1.34,4.47-2.65,8.89-3.97,13.32h-5.66q-1.035-5.04-2.06-10.03a1.625,1.625,0,0,0-.19-0.04c-0.22.7-.45,1.4-0.65,2.1-0.72,2.44-1.44,4.88-2.13,7.33a0.766,0.766,0,0,1-.93.68c-0.93-.05-1.88-0.01-2.92-0.01,0.6-2.06,1.18-4.04,1.77-6.03,0.66-2.22,1.35-4.44,1.99-6.68a0.785,0.785,0,0,1,.92-0.69C1475.68,3991.84,1477.34,3991.82,1479.07,3991.82Zm-103.77,0c0.67,4.48,1.33,8.87,1.99,13.32h-4.68c-0.09-.85-0.18-1.68-0.28-2.61-1.98,0-3.91-.01-5.85.03a0.873,0.873,0,0,0-.6.47c-0.8,1.96-2.33,2.52-4.39,2.18a7.808,7.808,0,0,0-1.21-.01c0.21-.31.34-0.52,0.49-0.72,3-4.02,6-8.03,8.97-12.07a1.373,1.373,0,0,1,1.27-.61C1372.4,3991.84,1373.8,3991.82,1375.3,3991.82Zm-3.18,8.2c-0.1-1.85-.2-3.65-0.29-5.44-0.07-.01-0.13-0.03-0.2-0.04-1.2,1.8-2.41,3.59-3.68,5.48h4.17Zm119.71,2.62h7.38c-0.27.91-.51,1.71-0.74,2.51h-11.54c0.49-1.6.95-3.14,1.41-4.68,0.78-2.64,1.58-5.28,2.34-7.93a0.841,0.841,0,0,1,1-.72c3.25,0.03,6.51.01,9.77,0.02,0.23,0,.45.02,0.79,0.04-0.22.75-.39,1.46-0.66,2.13a0.9,0.9,0,0,1-.71.34c-2.17.03-4.34,0.02-6.6,0.02-0.27.92-.54,1.82-0.84,2.82h6.79c-0.22.79-.38,1.51-0.64,2.18a0.921,0.921,0,0,1-.71.37c-1.8.03-3.6,0.05-5.4,0a0.86,0.86,0,0,0-1.04.77C1492.27,4001.19,1492.05,4001.85,1491.83,4002.64Zm-78.44-10.8c-1.68,1.42-3.37,2.84-5.05,4.27-0.57.49-1.45,0.94-1.58,1.53s0.49,1.34.79,2.01c0.79,1.75,1.59,3.49,2.47,5.41h-3.33c-1.83,0-1.83,0-2.45-1.65-0.66-1.74-1.31-3.48-2-5.21a0.79,0.79,0,0,1,.28-1.04c1.94-1.7,3.84-3.43,5.77-5.12a1.348,1.348,0,0,1,.82-0.35c1.39-.04,2.79-0.02,4.19-0.02C1413.33,3991.73,1413.36,3991.78,1413.39,3991.84Zm-10.49-.17c-1.35,4.55-2.66,8.94-3.97,13.35h-4.2c0.4-1.37.77-2.68,1.15-3.98,0.85-2.85,1.71-5.71,2.54-8.57a0.923,0.923,0,0,1,1.1-.82C1400.6,3991.72,1401.68,3991.67,1402.9,3991.67Z" transform="translate(-1348.63 -3991.44)"/>
</svg>
