<svg xmlns="http://www.w3.org/2000/svg" width="127.19" height="19.72" viewBox="0 0 127.19 19.72">
  <defs>
    <style>
      .cls-1 {
        fill: #c6c7cd;
        fill-rule: evenodd;
      }
    </style>
  </defs>
  <path id="Logo_6" class="cls-1" d="M1756.95,3998.4a9.876,9.876,0,0,1-19.63,1.37,9.783,9.783,0,0,1,1.97-7.57c4.52-5.66,13.9-4.4,16.84,2.23A9.422,9.422,0,0,1,1756.95,3998.4Zm-4.77-.26c-0.04-.25-0.07-0.75-0.18-1.24a4.878,4.878,0,0,0-3.88-3.82,5.1,5.1,0,0,0-5.27,2.24,5.848,5.848,0,0,0,.64,6.93,4.9,4.9,0,0,0,7.39-.16A5.95,5.95,0,0,0,1752.18,3998.14Zm45.01,9.76v-19.07h13.64c0,1.07.05,2.12-.01,3.17a1.346,1.346,0,0,1-1.51,1.16c-1.8.06-3.61,0.05-5.42,0.07h-1.68v2.73h7.1v4.42h-7.12v3.19h8.64a28.849,28.849,0,0,1-.03,2.95,1.594,1.594,0,0,1-1.34,1.29,3.415,3.415,0,0,1-.85.11q-5.5.015-11.01,0.01C1797.47,4007.93,1797.34,4007.91,1797.19,4007.9Zm-91.63-19.1c1.79,0,3.55-.02,5.31,0a1.708,1.708,0,0,1,1.71,1.27q2.865,8.73,5.75,17.47c0.03,0.11.05,0.22,0.09,0.38h-3.64c-1.12,0-1.12,0-1.47-1s-0.69-1.96-1.01-2.95a0.461,0.461,0,0,0-.52-0.38q-3.27.03-6.54,0a0.48,0.48,0,0,0-.53.39c-0.27.78-.57,1.55-0.86,2.32a2.067,2.067,0,0,1-2.39,1.62h-3.18Q1701.94,3998.305,1705.56,3988.8Zm2.96,4.51c-0.82,2.16-1.6,4.23-2.4,6.33h4.9C1710.19,3997.54,1709.37,3995.48,1708.52,3993.31Zm59.33-4.57a13.443,13.443,0,0,1,6.12,1.31c0.76,0.39.77,0.4,0.47,1.19a11.224,11.224,0,0,1-.57,1.34,1.576,1.576,0,0,1-2.19.83,18.5,18.5,0,0,0-3.02-.66,10.536,10.536,0,0,0-2.24.13,1.906,1.906,0,0,0-.66.22,1.244,1.244,0,0,0-.86,1.05,1.108,1.108,0,0,0,.76,1.06c1.01,0.42,2.03.82,3.08,1.16a21.528,21.528,0,0,1,4.14,1.57c3.88,2.2,3.5,6.74.05,8.83a10.791,10.791,0,0,1-6.23,1.34,12.079,12.079,0,0,1-7.19-2.64c-0.23-.19-0.33-0.32-0.15-0.59,0.38-.58.7-1.19,1.11-1.74a1.659,1.659,0,0,1,2.48-.48,9.776,9.776,0,0,0,5.18,1.28,5.19,5.19,0,0,0,1.61-.33,0.968,0.968,0,0,0,.51-1.58,2.931,2.931,0,0,0-1.2-.98c-1.06-.42-2.17-0.75-3.27-1.07a15.941,15.941,0,0,1-3.78-1.53c-3.16-1.89-2.84-5.16-.99-7.22a7.673,7.673,0,0,1,4.83-2.34C1766.51,3988.8,1767.18,3988.79,1767.85,3988.74Zm-37.26,15.41c0.84-.14,1.69-0.24,2.52-0.42,1.18-.25,1.77.01,2.16,1.12,0.21,0.58.3,1.2,0.5,1.78a0.484,0.484,0,0,1-.42.71c-1.23.29-2.45,0.67-3.71,0.84a11.281,11.281,0,0,1-8.45-2.01,9.069,9.069,0,0,1-3.81-8.71c0.66-6.73,6.93-9.2,11.43-8.81a21.778,21.778,0,0,1,4.46.9c0.45,0.13.65,0.31,0.48,0.8-0.2.58-.3,1.19-0.51,1.77a1.5,1.5,0,0,1-2.1,1.06,9.542,9.542,0,0,0-3.68-.27,5.679,5.679,0,0,0-2.42,10.25A6.923,6.923,0,0,0,1730.59,4004.15Zm57.57,3.76h-4.93v-14.67h-6.05c0-1.13-.02-2.19.02-3.25a1.026,1.026,0,0,1,.79-0.92,3.958,3.958,0,0,1,1.21-.25q7.35-.03,14.68-0.02c0.07,0,.13.02,0.23,0.03a32.571,32.571,0,0,1-.03,3.28,1.373,1.373,0,0,1-1.5,1.05c-1.22.07-2.45,0.05-3.67,0.06h-0.75v14.69Zm-104.48-19.11c1.11,0,2.17-.03,3.22.01a1.7,1.7,0,0,1,1.83,1.92q0.015,6.09.01,12.2v0.66h0.55c1.53,0,3.05-.01,4.58,0a4.755,4.755,0,0,1,.65.02,1.388,1.388,0,0,1,1.55,1.65v2.64h-12.39v-19.1Z" transform="translate(-1683.69 -3988.59)"/>
</svg>
