<svg xmlns="http://www.w3.org/2000/svg" width="97.81" height="23.91" viewBox="0 0 97.81 23.91">
  <defs>
    <style>
      .cls-1 {
        fill: #c6c7cd;
        fill-rule: evenodd;
      }
    </style>
  </defs>
  <path id="Logo_16" class="cls-1" d="M1094.97,4001.73c-0.08,2.36,1.22,4.57,3.93,4.46a10.7,10.7,0,0,0,2.38-.42,2.278,2.278,0,0,0,1.44-1.53,0.594,0.594,0,0,1,.33-0.36c1.92-.02,3.83-0.01,5.85-0.01-0.14.56-.24,1.07-0.4,1.55a7.018,7.018,0,0,1-4.59,4.77,16.3,16.3,0,0,1-10.79.05c-3.63-1.25-5.56-4.01-6.08-7.87a13.535,13.535,0,0,1,.32-5.3,8.693,8.693,0,0,1,5.46-6.2,13.28,13.28,0,0,1,10.19.09c3.48,1.49,5.28,4.34,5.74,8.14,0.07,0.61.07,1.22,0.08,1.84a6.814,6.814,0,0,1-.1.79h-13.76Zm5.73-3.61c-0.13-1.38-.16-2.75-1.45-3.51a2.364,2.364,0,0,0-2.7.09c-1.13.81-1.3,2.08-1.35,3.42h5.5Zm46.09,5.93h6a0.437,0.437,0,0,1,.07.08c0.28,1.54.84,2.17,2.33,2.4a8.448,8.448,0,0,0,2.07-.07,1.46,1.46,0,0,0,.73-0.35,1.139,1.139,0,0,0-.17-1.99,20.886,20.886,0,0,0-2.74-.75c-1.54-.4-3.12-0.68-4.61-1.23a5.083,5.083,0,0,1-3.51-4.69,5.847,5.847,0,0,1,2.6-5.56,10.617,10.617,0,0,1,4.97-1.72,14.231,14.231,0,0,1,6.73.56,7.068,7.068,0,0,1,3.45,2.5,4.655,4.655,0,0,1,.91,2.89h-5.52a2.261,2.261,0,0,0-1.92-1.74,5.015,5.015,0,0,0-3.11.17,1.133,1.133,0,0,0-.87,1.04,1.035,1.035,0,0,0,.83,1.06c1.12,0.31,2.27.53,3.41,0.81a41,41,0,0,1,4.23,1.09,4.992,4.992,0,0,1,3.53,4.32,6.089,6.089,0,0,1-2.43,6.02,9.789,9.789,0,0,1-4.3,1.66,18.66,18.66,0,0,1-7.48-.16,7.538,7.538,0,0,1-3.23-1.59A5.874,5.874,0,0,1,1146.79,4004.05Zm-15.32-13.61c-0.11.26-.17,0.42-0.24,0.57q-4.35,9.45-8.7,18.89a0.75,0.75,0,0,1-.8.53c-1.67-.03-3.35-0.02-5.04,0a0.55,0.55,0,0,1-.58-0.37q-4.56-9.6-9.13-19.2c-0.05-.11-0.09-0.22-0.16-0.39,0.21-.01.37-0.03,0.53-0.03,2.42-.01,4.85.01,7.28-0.02a0.7,0.7,0,0,1,.75.51q2.31,5.28,4.66,10.54c0.07,0.16.14,0.31,0.26,0.56,0.12-.24.2-0.39,0.27-0.56q2.34-5.265,4.66-10.53a0.71,0.71,0,0,1,.76-0.52c1.64,0.03,3.29.02,4.93,0.02h0.55Zm-44.86,14.88v5.04h-18.17v-19.7h7.25v0.67c0,4.44.01,8.89-.01,13.34,0,0.52.13,0.67,0.65,0.67,3.21-.03,6.42-0.02,9.63-0.02h0.65Zm45.93-14.88h7.27v0.6c0,6.23-.01,12.46.01,18.69,0,0.52-.11.69-0.64,0.68-2.06-.04-4.11-0.03-6.16-0.01-0.42.01-.52-0.13-0.52-0.54q0.015-9.465.01-18.95C1132.51,3990.77,1132.53,3990.63,1132.54,3990.44Zm10.37,4.67c0.37-1.1.72-2.17,1.1-3.32h-2.24v-4.58h4.7v1.54c0,0.94.03,1.89-.01,2.83a1.584,1.584,0,0,1-.3.84c-0.53.72-1.15,1.38-1.66,2.12A1.3,1.3,0,0,1,1142.91,3995.11Z" transform="translate(-1068.44 -3987.22)"/>
</svg>
