<svg xmlns="http://www.w3.org/2000/svg" width="125.75" height="30.94" viewBox="0 0 125.75 30.94">
  <defs>
    <style>
      .cls-1 {
        fill: #c6c7cd;
        fill-rule: evenodd;
      }
    </style>
  </defs>
  <path id="Logo_11" class="cls-1" d="M218.442,4013.92c-0.132-.01-0.437-0.04-0.678-0.05l-0.439-.03v-2.94l0.873,0.03a5.032,5.032,0,0,0,2.113-.25,4.306,4.306,0,0,0,2.438-2.22,9.26,9.26,0,0,0,.664-1.77l0.036-.18-0.364.03c-0.2.01-.883,0.04-1.519,0.05l-1.156.03-0.42-.86c-0.231-.47-0.676-1.38-0.991-2.01s-0.744-1.52-.956-1.96-0.679-1.38-1.037-2.1-0.825-1.68-1.037-2.11-0.667-1.37-1.011-2.06c-2-4.06-2.631-5.12-2.631-5.18,0-.03,1.268-0.05,3.2-0.04h3.2l0.608,1.38c1.562,3.56,2.706,5.91,3.3,7.24,0.357,0.8.813,1.84,1.011,2.32,0.682,1.64,1.2,2.82,1.252,2.83a13.639,13.639,0,0,0,.552-1.6c0.276-.89.656-2.06,0.842-2.6,0.823-2.36,1.545-4.45,2.217-6.41,0.4-1.16.814-2.13,0.926-2.45l0.2-.58,3.065-.02c1.685,0,3.065,0,3.065.01s-0.273.75-.6,1.63-0.881,2.1-1.22,2.99-1.1,2.92-1.685,4.49-1.2,3.2-1.367,3.64c-2.158,5.76-2.331,6.18-3.012,7.27-1.474,2.37-3.167,3.23-6.814,3.46C220.288,4013.95,219.013,4013.95,218.442,4013.92Zm-99.816-7.12a22.918,22.918,0,0,1-5.681-.8,3.908,3.908,0,0,1-2.906-3.57,4.8,4.8,0,0,1-.022-0.82l0.035-.26h3.1c1.707,0,3.1,0,3.1.01s-0.036.14-.079,0.3a1.391,1.391,0,0,0,.251,1.4c0.641,0.72,2.206,1.08,4.727,1.08,2.567,0,4.283-.35,5.092-1.03a1.594,1.594,0,0,0,.35-1.87,2.15,2.15,0,0,0-1.593-1.11,9.381,9.381,0,0,0-2.18-.16c-5.152-.13-6.8-0.25-8.576-0.61a4.987,4.987,0,0,1-2.831-1.28,2.912,2.912,0,0,1-.679-0.9,4.16,4.16,0,0,1-.46-2.35,4.236,4.236,0,0,1,.119-1.47,5.107,5.107,0,0,1,.317-0.79,4.226,4.226,0,0,1,1.4-1.42,13.043,13.043,0,0,1,4.942-1.07c1.321-.12,6.939-0.14,8.21-0.03a13.212,13.212,0,0,1,4.733.98,3.537,3.537,0,0,1,1.753,2.22,7.738,7.738,0,0,1,.188,1.33v0.17h-5.885l-0.094-.43a1.568,1.568,0,0,0-1.09-1.41,10.9,10.9,0,0,0-2.981-.25,14.159,14.159,0,0,0-3.518.2,3.037,3.037,0,0,0-1.589.73,1.273,1.273,0,0,0-.439,1.15,1.314,1.314,0,0,0,.869,1.46,36.388,36.388,0,0,0,5.421.4c4.734,0.17,7.366.56,8.566,1.26a3.246,3.246,0,0,1,1.212,1.34,6.4,6.4,0,0,1-.023,4.54c-1,1.97-3.253,2.77-8.532,3.04C122.947,4006.82,119.635,4006.84,118.626,4006.8Zm38.851-.02c-5.277-.29-7.279-1.17-7.952-3.49a4.7,4.7,0,0,1-.143-1.17l-0.029-.77h3.118c1.715,0,3.118.01,3.118,0.03s-0.038.18-.085,0.35c-0.331,1.26.593,2,2.9,2.32a30.732,30.732,0,0,0,4.5-.03c1.688-.23,2.721-0.7,3.058-1.39a1.783,1.783,0,0,0-.021-1.4,2.184,2.184,0,0,0-1.609-1.1,9.323,9.323,0,0,0-2.176-.16,67.623,67.623,0,0,1-7.258-.39c-2.5-.34-3.733-0.85-4.5-1.89a4.259,4.259,0,0,1-.8-2.6,3.906,3.906,0,0,1,1.567-3.75c0.943-.67,2.55-1.04,5.49-1.28,1.119-.09,5.634-0.13,6.992-0.06,4.593,0.24,6.4.89,7.2,2.57a4.971,4.971,0,0,1,.41,1.7l0.034,0.49-2.942-.02-2.941-.01-0.123-.5c-0.346-1.4-.8-1.55-4.486-1.56a15.849,15.849,0,0,0-2.629.1,3.784,3.784,0,0,0-2.148.9,1.411,1.411,0,0,0-.317,1.15,1.238,1.238,0,0,0,.857,1.38,36.27,36.27,0,0,0,5.407.4c4.85,0.18,7.521.58,8.653,1.32a2.9,2.9,0,0,1,1.107,1.24,4.024,4.024,0,0,1,.454,1.68,5.41,5.41,0,0,1-.547,3.1,4.843,4.843,0,0,1-1.458,1.46c-1.224.7-2.992,1.09-5.976,1.33C163.267,4006.8,158.57,4006.84,157.477,4006.78Zm39.907,0.02c-3.357-.18-5.3-0.54-6.726-1.23a4,4,0,0,1-1.967-1.92,9.333,9.333,0,0,1-.913-3.2,24.677,24.677,0,0,1,0-4.45,6.515,6.515,0,0,1,1.815-4.02,4.3,4.3,0,0,1,1.465-.92,16.486,16.486,0,0,1,4.945-1.01c1.053-.09,5.655-0.09,6.673,0,2.772,0.26,4.615.75,5.66,1.51a5.851,5.851,0,0,1,2.082,3.96,33.258,33.258,0,0,1,.206,3.41l0,0.2h-16.8l-0.037.19a8.7,8.7,0,0,0,.134,2.12,2.662,2.662,0,0,0,1.121,1.71c0.834,0.53,2.91.78,5.531,0.67,2.7-.1,3.474-0.39,3.831-1.4a3.281,3.281,0,0,0,.141-0.72l0.03-.41h6.052l-0.033.6a3.529,3.529,0,0,1-.6,2.08c-1.018,1.48-3.264,2.36-6.978,2.73C202.243,4006.78,198.3,4006.85,197.384,4006.8Zm7.215-10.87c-0.08-1.81-.557-2.46-2.042-2.75a22.032,22.032,0,0,0-5.917-.11,3.509,3.509,0,0,0-2.05.8,3.724,3.724,0,0,0-.7,2.19l-0.032.59h10.773Zm-66.416,2.46v-7.99h6.141v16.22h-6.141v-8.23Zm38.858-3.5V3983h6.219v23.62h-6.219v-11.73Zm-38.858-10.23V3983h6.141v3.63h-6.141v-1.97Z" transform="translate(-110.031 -3983)"/>
</svg>
