<svg xmlns="http://www.w3.org/2000/svg" width="117.343" height="35.19" viewBox="0 0 117.343 35.19">
  <defs>
    <style>
      .cls-1 {
        fill: #c6c7cd;
        fill-rule: evenodd;
      }
    </style>
  </defs>
  <path id="Logo_15" class="cls-1" d="M499.3,4008.64c-1.143-.93-2.339-1.91-3.65-2.98q0.867-1.185,1.656-2.25c-0.565-1.24-1.123-2.45-1.754-3.83v5.63c0,1.03-.015,2.07.006,3.1a0.739,0.739,0,0,1-.835.89c-0.976,0-1.954-.03-2.927.03a0.869,0.869,0,0,1-1.063-1.07c0.028-3.15.006-6.29,0-9.43,0-1.97-.857-2.98-2.533-3.02a2.856,2.856,0,0,0-3.076,3.05c-0.021,2.66.016,5.32,0.027,7.98,0,0.72,0,1.44,0,2.26h-4.439a3.772,3.772,0,0,1-.1-0.58c-0.047-5.49-.068-10.98-0.149-16.46-0.015-1.03.258-1.45,1.3-1.37,1.069,0.09,2.148.02,3.3,0.02,0.074,0.51.14,0.96,0.219,1.5a6.364,6.364,0,0,1,6.6-.86c2.4,0.97,3.449,2.98,3.811,5.54,0.123-.44.23-0.88,0.371-1.32a7.758,7.758,0,0,1,9.18-5.1,17.574,17.574,0,0,0,3.491.24c1.239,0.04,2.48.01,3.91,0.01-0.333,1.29-.577,2.49-0.979,3.62a2.31,2.31,0,0,1-1.1.51c0.772,5.06.759,5.17-.981,8.29a43.529,43.529,0,0,1,2.566,4.24,10.031,10.031,0,0,1-2.208,11.08,9.035,9.035,0,0,1-12.659.09c-0.909-.91-0.93-0.94-0.08-1.87a23.085,23.085,0,0,0,1.622-1.84c0.475-.63.788-0.59,1.344-0.04a4.521,4.521,0,0,0,6.113.7,4.876,4.876,0,0,0,1.984-5.16,4.533,4.533,0,0,0-3.565-3.78,4.68,4.68,0,0,0-4.816,1.65c-0.136.15-.255,0.31-0.385,0.47A0.774,0.774,0,0,1,499.3,4008.64Zm0.934-10.35a3.37,3.37,0,0,0,3.118,3.29,3.331,3.331,0,0,0,3.126-3.28A3.123,3.123,0,1,0,500.234,3998.29Zm-50.294,11.85c-0.938-2.07-1.88-4.13-2.811-6.2s-1.859-4.16-2.871-6.42c-0.987,2.27-1.888,4.35-2.791,6.43s-1.815,4.18-2.723,6.26a2.825,2.825,0,0,1-.29.02c-3.222-8.04-6.444-16.09-9.759-24.36,1.714,0,3.278-.03,4.837.04a1.348,1.348,0,0,1,.653.79c1.472,3.42,2.918,6.85,4.375,10.28a1.419,1.419,0,0,0,.23.25c1.748-3.63,3.474-7.22,5.319-11.06,1.929,3.66,3.73,7.07,5.644,10.69,1.145-2.79,2.218-5.33,3.222-7.89,1.216-3.1,1.191-3.11,4.424-3.12h1.931c-3.082,8.25-6.075,16.25-9.068,24.26Zm74.892-6.28c1.143,1.67,2.758,1.58,4.322,1.41a5.857,5.857,0,0,0,3.968-2.69c0.65,1.22,1.254,2.23,1.725,3.31a1.362,1.362,0,0,1-.392,1.05,8.133,8.133,0,0,1-5.487,2.48c-4.041.36-8.128-1.56-9.553-5.92-1.312-4.01-.662-9.16,3-11.7,4.067-2.84,10.77-1.4,13.01,2.82a1.013,1.013,0,0,1-.374,1.58q-4.856,3.5-9.666,7.06A3.946,3.946,0,0,0,524.832,4003.86Zm4.716-8.26a2.674,2.674,0,0,0-3.754-.89,4.845,4.845,0,0,0-2.524,5.4Zm-54.358,12.99c-3.19,1.27-5.955.82-8.232-1.66a6.6,6.6,0,0,1-.758-7.21c1.485-2.83,3.96-3.6,8.969-2.73,0.068-.71.136-1.41,0.218-2.28h-7.115c0.409-1.33.712-2.44,1.109-3.52a1.02,1.02,0,0,1,.772-0.5c2.891-.04,5.783-0.06,8.673-0.02a1.022,1.022,0,0,1,.612.77q0.147,3.3.166,6.62c0.023,3.34-.015,6.69.018,10.04a0.816,0.816,0,0,1-1,1.01c-0.7-.04-1.419.06-2.116-0.02A5.272,5.272,0,0,1,475.19,4008.59Zm-2.639-3.49a2.593,2.593,0,0,0,2.55-2.14c0.026-1.12-1.23-2.15-2.629-2.17a2.535,2.535,0,0,0-2.652,2.26C469.851,4004.14,471.151,4005.12,472.551,4005.1Zm45.626-19.27c0,4.72,0,9.27,0,13.81,0,2.86-.023,5.72.026,8.58,0.014,0.84-.25,1.1-1.04,1.05a15.257,15.257,0,0,0-2.618.01c-0.964.09-1.263-.24-1.263-1.24,0-4.79-.079-9.58-0.115-14.37-0.017-2.24.044-4.48-.025-6.72-0.029-.94.286-1.18,1.149-1.13C515.489,3985.89,516.693,3985.83,518.177,3985.83Zm23.107,5.53c1.18-.43,2.313-0.9,3.483-1.25,0.933-.27,1.235.03,1.247,1.01,0.012,0.96.057,1.93-.026,2.89a1.226,1.226,0,0,1-.693.72c-0.958.43-2,.69-2.913,1.21a2.564,2.564,0,0,0-1.2,2.44c0.042,3.18.006,6.35,0.045,9.53,0.008,0.72-.213.98-0.922,0.93a19.119,19.119,0,0,0-2.622.01c-0.876.07-1.09-.31-1.088-1.14,0.014-4.83-.012-9.66-0.023-14.49,0-.69.03-1.38-0.007-2.07a0.681,0.681,0,0,1,.835-0.84,19.26,19.26,0,0,0,2.52-.01C540.8,3990.21,541.385,3990.36,541.284,3991.36Zm-78.395.3a30.762,30.762,0,0,1,2.983-1.19c1.45-.43,1.812-0.1,1.8,1.41,0,0.25,0,.49-0.009.73a4.409,4.409,0,0,1-.181,1.92,3.3,3.3,0,0,1-1.611.64c-2.093.72-3.317,1.75-3.215,4.42,0.118,3.09.028,6.2,0.028,9.38H458.17c0-1.38.011-2.78,0-4.18-0.041-4.34-.069-8.69-0.157-13.03-0.019-.93.275-1.24,1.146-1.17a17.649,17.649,0,0,0,2.519.01C462.505,3990.54,463,3990.76,462.889,3991.66Zm59.222-4.05a1.526,1.526,0,0,1-1.522,1.56,1.6,1.6,0,0,1-.036-3.19A1.532,1.532,0,0,1,522.111,3987.61Z" transform="translate(-428.688 -3985.81)"/>
</svg>
